HIERARCHY
ROOT Hips
{
	OFFSET -0.001795 -0.223333 0.028219
	CHANNELS 6 Xposition Yposition Zposition Zrotation Yrotation Xrotation 
	JOINT LeftUpLeg
	{
		OFFSET 0.069520 -0.091406 -0.006815
		CHANNELS 3 Zrotation Yrotation Xrotation
		JOINT LeftLeg
		{
			OFFSET 0.034277 -0.375199 -0.004496
			CHANNELS 3 Zrotation Yrotation Xrotation
			JOINT LeftFoot
			{
				OFFSET -0.013596 -0.397961 -0.043693
				CHANNELS 3 Zrotation Yrotation Xrotation
				JOINT LeftToe
				{
					OFFSET 0.026358 -0.055791 0.119288
					CHANNELS 3 Zrotation Yrotation Xrotation
					End Site
					{
						OFFSET 0.000000 0.000000 0.000000
					}
				}
			}
		}
	}
	JOINT RightUpLeg
	{
		OFFSET -0.067670 -0.090522 -0.004320
		CHANNELS 3 Zrotation Yrotation Xrotation
		JOINT RightLeg
		{
			OFFSET -0.038290 -0.382569 -0.008850
			CHANNELS 3 Zrotation Yrotation Xrotation
			JOINT RightFoot
			{
				OFFSET 0.015774 -0.398415 -0.042312
				CHANNELS 3 Zrotation Yrotation Xrotation
				JOINT RightToe
				{
					OFFSET -0.025372 -0.048144 0.123348
					CHANNELS 3 Zrotation Yrotation Xrotation
					End Site
					{
						OFFSET 0.000000 0.000000 0.000000
					}
				}
			}
		}
	}
	JOINT Spine
	{
		OFFSET -0.002533 0.108963 -0.026696
		CHANNELS 3 Zrotation Yrotation Xrotation
		JOINT Spine1
		{
			OFFSET 0.005487 0.135180 0.001092
			CHANNELS 3 Zrotation Yrotation Xrotation
			JOINT Spine2
			{
				OFFSET 0.001457 0.052922 0.025425
				CHANNELS 3 Zrotation Yrotation Xrotation
				JOINT Neck
				{
					OFFSET -0.002778 0.213870 -0.042857
					CHANNELS 3 Zrotation Yrotation Xrotation
					JOINT Head
					{
						OFFSET 0.005152 0.064970 0.051349
						CHANNELS 3 Zrotation Yrotation Xrotation
						End Site
						{
							OFFSET 0.000000 0.000000 0.000000
						}
					}
				}
				JOINT LeftShoulder
				{
					OFFSET 0.078845 0.121749 -0.034090
					CHANNELS 3 Zrotation Yrotation Xrotation
					JOINT LeftArm
					{
						OFFSET 0.090977 0.030469 -0.008868
						CHANNELS 3 Zrotation Yrotation Xrotation
						JOINT LeftForeArm
						{
							OFFSET 0.259612 -0.012772 -0.027456
							CHANNELS 3 Zrotation Yrotation Xrotation
							JOINT LeftHand
							{
								OFFSET 0.249234 0.008986 -0.001171
								CHANNELS 3 Zrotation Yrotation Xrotation
								End Site
								{
									OFFSET 0.000000 0.000000 0.000000
								}
							}
						}
					}
				}
				JOINT RightShoulder
				{
					OFFSET -0.081759 0.118833 -0.038615
					CHANNELS 3 Zrotation Yrotation Xrotation
					JOINT RightArm
					{
						OFFSET -0.096012 0.032551 -0.009143
						CHANNELS 3 Zrotation Yrotation Xrotation
						JOINT RightForeArm
						{
							OFFSET -0.253742 -0.013329 -0.021401
							CHANNELS 3 Zrotation Yrotation Xrotation
							JOINT RightHand
							{
								OFFSET -0.255298 0.007772 -0.005559
								CHANNELS 3 Zrotation Yrotation Xrotation
								End Site
								{
									OFFSET 0.000000 0.000000 0.000000
								}
							}
						}
					}
				}
			}
		}
	}
}
MOTION
Frames: 7
Frame Time: 0.050000
0.000000 0.928490 0.000000 -0.626809 -1.550136 2.058881 0.576003 0.573895 6.579824 -0.702390 0.177764 -3.566928 3.233044 7.676695 2.988555 0.000000 0.000000 0.000000 0.642365 0.219809 -2.286951 3.359648 -0.332273 0.823099 -2.957488 -8.007661 1.683870 0.000000 0.000000 0.000000 3.845157 0.047118 -1.394708 -1.439873 0.684590 0.528936 -2.760174 3.640473 6.307168 6.566415 -3.142721 -12.279934 0.000000 0.000000 0.000000 -22.019475 -4.107185 -0.768511 -29.029425 7.687711 -4.745152 -12.226578 -33.243415 4.664176 0.000000 0.000000 0.000000 19.891861 -1.218542 -1.621960 32.538427 -6.118529 -4.817541 15.131556 43.713569 7.765710 0.000000 0.000000 0.000000 
-0.001883 0.927831 -0.000125 -1.031793 -2.415203 2.579563 1.079448 0.574662 6.920211 -0.895005 0.233508 -4.991584 3.543058 8.328146 3.215784 0.000000 0.000000 0.000000 1.450272 0.332884 -3.414850 2.817142 -0.251700 1.766690 -2.759202 -7.415935 1.310973 0.000000 0.000000 0.000000 4.564440 0.087058 -1.976506 -2.193473 1.053203 1.177329 -2.468735 4.178979 5.830779 7.513894 -3.466575 -13.915626 0.000000 0.000000 0.000000 -20.170652 -3.923950 -0.706726 -29.536191 8.391470 -4.963742 -10.981942 -32.678702 4.200625 0.000000 0.000000 0.000000 18.539742 -2.290870 -2.104062 33.020790 -7.504040 -5.172695 16.806287 45.541023 8.900134 0.000000 0.000000 0.000000 
-0.004875 0.927868 0.000080 -0.845825 -1.959866 2.830404 1.458084 0.528449 6.781117 -1.426476 0.276090 -5.307217 3.267017 7.850797 3.437261 0.000000 0.000000 0.000000 1.528986 0.512293 -4.983935 2.745374 -0.204698 4.183638 -3.126662 -8.139417 0.825320 0.000000 0.000000 0.000000 4.870962 0.067549 -1.808480 -1.307086 0.627484 -0.589679 -3.584358 4.180506 7.652179 7.451404 -3.470845 -13.738067 0.000000 0.000000 0.000000 -19.129048 -3.832302 -0.677951 -29.632558 8.684418 -5.126687 -10.824572 -33.309433 4.210890 0.000000 0.000000 0.000000 19.028648 -2.413744 -2.066464 32.191324 -8.610384 -5.407125 16.983751 47.562057 9.499984 0.000000 0.000000 0.000000 
-0.009561 0.928258 0.000890 -0.880066 -2.504345 2.781054 1.604932 0.526896 6.811401 -1.242451 0.259250 -5.042983 3.493242 8.348319 3.723147 0.000000 0.000000 0.000000 2.086697 0.563405 -5.380713 2.302151 -0.119162 5.078679 -2.993629 -7.759598 0.667474 0.000000 0.000000 0.000000 4.738818 0.070039 -1.807447 -1.506148 0.718225 0.493492 -3.210486 4.030936 6.950934 7.232254 -3.290020 -14.093036 0.000000 0.000000 0.000000 -19.552164 -3.178497 -0.975935 -28.665525 9.172484 -5.020929 -9.188824 -33.506935 3.778252 0.000000 0.000000 0.000000 18.923998 -2.863002 -2.445744 31.564316 -9.546352 -5.411879 17.010503 49.968358 10.001595 0.000000 0.000000 0.000000 
-0.015764 0.929004 0.002462 -0.946372 -2.561651 2.723516 2.115933 0.501021 6.949894 -1.297652 0.261038 -4.956230 3.459641 8.386793 4.177012 0.000000 0.000000 0.000000 2.443517 0.589442 -5.550640 2.526051 -0.137453 5.706628 -2.958290 -7.712508 0.776018 0.000000 0.000000 0.000000 4.702515 0.015667 -1.146884 -0.759685 0.358787 0.495128 -3.682184 3.954211 6.910175 7.620315 -3.643231 -13.515854 0.000000 0.000000 0.000000 -19.477622 -3.212696 -0.945588 -28.121444 9.847108 -5.045467 -7.900550 -34.465889 3.493869 0.000000 0.000000 0.000000 19.042611 -3.183583 -2.642275 31.531648 -10.151833 -5.525623 17.691171 51.551873 10.701820 0.000000 0.000000 0.000000 
-0.023316 0.928860 0.005141 -1.209053 -3.261445 2.561292 2.555665 0.453422 6.610382 -0.923191 0.195838 -3.476400 3.904558 9.197423 4.060942 0.000000 0.000000 0.000000 2.972345 0.550151 -5.198878 2.890820 -0.182932 5.743648 -2.683420 -6.984428 0.629957 0.000000 0.000000 0.000000 4.905828 -0.022726 -0.660259 -0.762334 0.354911 1.534858 -3.340496 3.466096 6.356294 6.949385 -3.263156 -13.553679 0.000000 0.000000 0.000000 -19.060447 -2.762010 -0.928079 -29.095688 10.123682 -5.332189 -5.059640 -35.070318 2.729802 0.000000 0.000000 0.000000 18.567813 -3.329495 -2.902085 32.749464 -9.836905 -5.600592 14.498796 52.357571 9.211798 0.000000 0.000000 0.000000 
-0.031629 0.928199 0.008903 -1.352626 -4.227972 2.353502 3.393281 0.341085 5.584286 -1.519089 0.187356 -0.459901 4.479824 10.226855 3.741961 0.000000 0.000000 0.000000 3.692844 0.448961 -4.407337 2.710546 -0.156541 5.247525 -2.348804 -5.990248 0.230084 0.000000 0.000000 0.000000 5.047639 -0.091161 0.182355 -0.860728 0.409343 1.818116 -3.309538 3.471109 6.222550 6.958799 -3.384956 -13.087265 0.000000 0.000000 0.000000 -19.219282 -2.119950 -1.165426 -30.190779 9.592414 -5.473544 -2.397599 -35.050241 1.935603 0.000000 0.000000 0.000000 19.293134 -3.463038 -3.172565 34.683265 -9.508786 -5.860010 10.514126 53.200113 7.367813 0.000000 0.000000 0.000000 
